<!-- sample rectangle -->
<svg xmlns="http://www.w3.org/2000/svg" enableBackground="new 0 0 24 24" viewBox="0 0 24 24" width="45" height="45">
            <path d="M11.4,6C9.2,4.3,6.1,4.8,4.5,7C4,7.7,3.7,8.4,3.6,9.1C2,9.7,1.1,11.3,1.6,12.9C2,14,2.9,14.8,4,15c0.2-1.7,1.2-3.2,2.7-3.9	C7.4,8.7,9.2,6.8,11.4,6z M19.5,10.5c-1.4-3-4.9-4.4-7.9-3c-1.9,0.8-3.2,2.6-3.5,4.6c-1.9,0.5-3,2.4-2.4,4.3C6,18,7.4,19,9,19h9.2
	             c2.4,0,4.3-1.9,4.3-4.3C22.5,12.8,21.3,11.1,19.5,10.5z" fill='#ffffff'>
</path>
        </svg>